<svg width="20" height="15" viewBox="0 0 20 15" fill="none" xmlns="http://www.w3.org/2000/svg">
<mask id="mask0_1_479" style="mask-type:luminance" maskUnits="userSpaceOnUse" x="0" y="0" width="20" height="15">
<rect width="20" height="15" fill="white"/>
</mask>
<g mask="url(#mask0_1_479)">
<path fill-rule="evenodd" clip-rule="evenodd" d="M0 0V15H20V0H0Z" fill="#FFB400"/>
<mask id="mask1_1_479" style="mask-type:luminance" maskUnits="userSpaceOnUse" x="0" y="0" width="20" height="15">
<path fill-rule="evenodd" clip-rule="evenodd" d="M0 0V15H20V0H0Z" fill="white"/>
</mask>
<g mask="url(#mask1_1_479)">
<path fill-rule="evenodd" clip-rule="evenodd" d="M0 0V3.75H20V0H0Z" fill="#C51918"/>
<path fill-rule="evenodd" clip-rule="evenodd" d="M0 11.25V15H20V11.25H0Z" fill="#C51918"/>
<rect x="3.13" y="6.42017" width="0.7" height="3.64" fill="#F1F9FF"/>
<path fill-rule="evenodd" clip-rule="evenodd" d="M4.10998 5.79004H2.84998V6.14004H3.05998V6.42004H3.89998V6.14004H4.10998V5.79004Z" fill="#C88A02"/>
<path fill-rule="evenodd" clip-rule="evenodd" d="M3.89998 10.27H4.10998V10.62H2.84998V10.27H3.05998V9.98999H3.89998V10.27Z" fill="#C88A02"/>
<path fill-rule="evenodd" clip-rule="evenodd" d="M3.47999 5.86009C3.63232 5.86009 3.64781 5.80273 3.73768 5.71706C3.80746 5.65053 3.96999 5.56803 3.96999 5.47509C3.96999 5.26246 3.75061 5.09009 3.47999 5.09009C3.20937 5.09009 2.98999 5.26246 2.98999 5.47509C2.98999 5.57863 3.10191 5.64786 3.18654 5.71706C3.2757 5.78996 3.34115 5.86009 3.47999 5.86009Z" fill="#AD1619"/>
<path fill-rule="evenodd" clip-rule="evenodd" d="M2.84998 10.6201H4.10998V11.1801C4.10998 11.1801 3.95248 11.1101 3.79498 11.1101C3.63748 11.1101 3.47998 11.1801 3.47998 11.1801C3.47998 11.1801 3.32248 11.1101 3.16498 11.1101C3.00748 11.1101 2.84998 11.1801 2.84998 11.1801V10.6201Z" fill="#005BBF"/>
<mask id="mask2_1_479" style="mask-type:luminance" maskUnits="userSpaceOnUse" x="2" y="10" width="3" height="2">
<path fill-rule="evenodd" clip-rule="evenodd" d="M2.84998 10.6201H4.10998V11.1801C4.10998 11.1801 3.95248 11.1101 3.79498 11.1101C3.63748 11.1101 3.47998 11.1801 3.47998 11.1801C3.47998 11.1801 3.32248 11.1101 3.16498 11.1101C3.00748 11.1101 2.84998 11.1801 2.84998 11.1801V10.6201Z" fill="white"/>
</mask>
<g mask="url(#mask2_1_479)">
<path d="M2.8386 11.0701L2.8111 11.0031C2.92458 10.9526 3.03847 10.9272 3.15254 10.9272C3.22623 10.9272 3.26471 10.9375 3.33013 10.9666C3.38759 10.9922 3.41738 11.0002 3.48023 11.0002C3.54307 11.0002 3.57286 10.9922 3.63032 10.9666C3.69574 10.9375 3.73422 10.9272 3.80791 10.9272C3.92198 10.9272 4.03587 10.9526 4.14935 11.0031L4.12185 11.0701C4.01688 11.0234 3.91231 11.0002 3.80791 11.0002C3.74507 11.0002 3.71528 11.0081 3.65782 11.0337C3.5924 11.0628 3.55392 11.0731 3.48023 11.0731C3.40653 11.0731 3.36805 11.0628 3.30263 11.0337C3.24517 11.0081 3.21538 11.0002 3.15254 11.0002C3.04814 11.0002 2.94357 11.0234 2.8386 11.0701Z" fill="white"/>
<path d="M2.8386 10.8602L2.8111 10.7931C2.92458 10.7426 3.03847 10.7173 3.15254 10.7173C3.22623 10.7173 3.26471 10.7276 3.33013 10.7567C3.38759 10.7822 3.41738 10.7902 3.48023 10.7902C3.54307 10.7902 3.57286 10.7822 3.63032 10.7567C3.69574 10.7276 3.73422 10.7173 3.80791 10.7173C3.92198 10.7173 4.03587 10.7426 4.14935 10.7931L4.12185 10.8602C4.01688 10.8135 3.91231 10.7902 3.80791 10.7902C3.74507 10.7902 3.71528 10.7982 3.65782 10.8237C3.5924 10.8528 3.55392 10.8631 3.48023 10.8631C3.40653 10.8631 3.36805 10.8528 3.30263 10.8237C3.24517 10.7982 3.21538 10.7902 3.15254 10.7902C3.04814 10.7902 2.94357 10.8135 2.8386 10.8602Z" fill="white"/>
</g>
<rect x="9.98999" y="6.42017" width="0.7" height="3.64" fill="#F1F9FF"/>
<path fill-rule="evenodd" clip-rule="evenodd" d="M10.97 5.79004H9.71002V6.14004H9.92002V6.42004H10.76V6.14004H10.97V5.79004Z" fill="#C88A02"/>
<path fill-rule="evenodd" clip-rule="evenodd" d="M10.76 10.27H10.97V10.62H9.71002V10.27H9.92002V9.98999H10.76V10.27Z" fill="#C88A02"/>
<path fill-rule="evenodd" clip-rule="evenodd" d="M10.34 5.86009C10.4923 5.86009 10.5078 5.80273 10.5977 5.71706C10.6674 5.65053 10.83 5.56803 10.83 5.47509C10.83 5.26246 10.6106 5.09009 10.34 5.09009C10.0694 5.09009 9.84998 5.26246 9.84998 5.47509C9.84998 5.57863 9.9619 5.64786 10.0465 5.71706C10.1357 5.78996 10.2011 5.86009 10.34 5.86009Z" fill="#AD1619"/>
<path fill-rule="evenodd" clip-rule="evenodd" d="M9.71002 10.6201H10.97V11.1801C10.97 11.1801 10.8125 11.1101 10.655 11.1101C10.4975 11.1101 10.34 11.1801 10.34 11.1801C10.34 11.1801 10.1825 11.1101 10.025 11.1101C9.86752 11.1101 9.71002 11.1801 9.71002 11.1801V10.6201Z" fill="#005BBF"/>
<mask id="mask3_1_479" style="mask-type:luminance" maskUnits="userSpaceOnUse" x="9" y="10" width="2" height="2">
<path fill-rule="evenodd" clip-rule="evenodd" d="M9.71002 10.6201H10.97V11.1801C10.97 11.1801 10.8125 11.1101 10.655 11.1101C10.4975 11.1101 10.34 11.1801 10.34 11.1801C10.34 11.1801 10.1825 11.1101 10.025 11.1101C9.86752 11.1101 9.71002 11.1801 9.71002 11.1801V10.6201Z" fill="white"/>
</mask>
<g mask="url(#mask3_1_479)">
<path d="M9.69864 11.0701L9.67114 11.0031C9.78463 10.9526 9.89852 10.9272 10.0126 10.9272C10.0863 10.9272 10.1248 10.9375 10.1902 10.9666C10.2476 10.9922 10.2774 11.0002 10.3403 11.0002C10.4031 11.0002 10.4329 10.9922 10.4904 10.9666C10.5558 10.9375 10.5943 10.9272 10.668 10.9272C10.782 10.9272 10.8959 10.9526 11.0094 11.0031L10.9819 11.0701C10.8769 11.0234 10.7724 11.0002 10.668 11.0002C10.6051 11.0002 10.5753 11.0081 10.5179 11.0337C10.4524 11.0628 10.414 11.0731 10.3403 11.0731C10.2666 11.0731 10.2281 11.0628 10.1627 11.0337C10.1052 11.0081 10.0754 11.0002 10.0126 11.0002C9.90819 11.0002 9.80362 11.0234 9.69864 11.0701Z" fill="white"/>
<path d="M9.69864 10.8602L9.67114 10.7931C9.78463 10.7426 9.89852 10.7173 10.0126 10.7173C10.0863 10.7173 10.1248 10.7276 10.1902 10.7567C10.2476 10.7822 10.2774 10.7902 10.3403 10.7902C10.4031 10.7902 10.4329 10.7822 10.4904 10.7567C10.5558 10.7276 10.5943 10.7173 10.668 10.7173C10.782 10.7173 10.8959 10.7426 11.0094 10.7931L10.9819 10.8602C10.8769 10.8135 10.7724 10.7902 10.668 10.7902C10.6051 10.7902 10.5753 10.7982 10.5179 10.8237C10.4524 10.8528 10.414 10.8631 10.3403 10.8631C10.2666 10.8631 10.2281 10.8528 10.1627 10.8237C10.1052 10.7982 10.0754 10.7902 10.0126 10.7902C9.90819 10.7902 9.80362 10.8135 9.69864 10.8602Z" fill="white"/>
</g>
<path fill-rule="evenodd" clip-rule="evenodd" d="M3.11747 9.79993C3.24367 9.64692 3.31425 9.50773 3.31425 9.35989C3.31425 9.26667 3.28651 9.18616 3.23791 9.12039L3.24612 9.11669C3.24536 9.11704 3.38457 9.05636 3.43303 9.03312C3.52313 8.98992 3.6025 8.94416 3.67989 8.88788C3.7293 8.85195 3.7955 8.81282 3.89641 8.75863L3.99125 8.70819L4.01685 8.69459C4.06589 8.66843 4.10242 8.64837 4.13635 8.62869C4.24208 8.56736 4.31195 8.51667 4.36539 8.4489C4.49196 8.2884 4.46568 8.07082 4.28831 7.95006C4.20141 7.89089 4.08415 7.85694 3.91225 7.83022L3.87665 7.82471L3.6664 7.79212C3.58415 7.7792 3.51075 7.76714 3.44531 7.75571C3.87566 7.6841 4.49019 7.71042 4.7605 7.84999L5.01741 7.35239C4.46657 7.06799 3.21149 7.09703 2.74265 7.4199C2.39878 7.65672 2.44492 8.0147 2.80271 8.16885C2.95221 8.23326 3.1471 8.276 3.50776 8.33394C3.44732 8.369 3.39721 8.40103 3.35052 8.43498C3.30318 8.46942 3.25245 8.49866 3.19092 8.52816C3.16149 8.54227 3.07434 8.58054 3.0344 8.59808L3.01432 8.60692C2.72289 8.73943 2.58146 8.92274 2.62372 9.25366L2.6466 9.43279L2.68764 9.4454L3.11747 9.79993ZM2.75723 9.337L2.75634 9.33958L2.75702 9.33775L2.75723 9.337ZM10.4412 9.35989C10.4412 9.50773 10.5118 9.64692 10.638 9.79993L11.0678 9.4454L11.1089 9.43279L11.1317 9.25366C11.174 8.92274 11.0326 8.73943 10.7411 8.60692L10.7211 8.59808L10.721 8.59804C10.681 8.58049 10.594 8.54226 10.5645 8.52816C10.503 8.49866 10.4523 8.46942 10.4049 8.43498C10.3583 8.40103 10.3081 8.369 10.2477 8.33394C10.6084 8.276 10.8033 8.23326 10.9528 8.16885C11.3105 8.0147 11.3567 7.65672 11.0128 7.4199C10.544 7.09703 9.2889 7.06799 8.73806 7.35239L8.99497 7.84999C9.26528 7.71042 9.8798 7.6841 10.3102 7.75571C10.2447 7.76714 10.1713 7.7792 10.0891 7.79212L9.87879 7.82472L9.84321 7.83022C9.67132 7.85694 9.55405 7.89089 9.46715 7.95006C9.28978 8.07082 9.2635 8.2884 9.39008 8.4489C9.44352 8.51667 9.51339 8.56736 9.61912 8.62869C9.65305 8.64837 9.68957 8.66843 9.73862 8.69459L9.76429 8.70823L9.85905 8.75863C9.95997 8.81282 10.0262 8.85195 10.0756 8.88788C10.153 8.94416 10.2323 8.98992 10.3224 9.03312C10.3709 9.05636 10.5101 9.11704 10.5093 9.11669L10.5176 9.12039C10.469 9.18616 10.4412 9.26667 10.4412 9.35989Z" fill="#AD1619"/>
<path d="M3.7021 7.75L3.90872 7.79274V8.1007C3.68866 8.27629 3.13 8.57223 3.13 8.57223V7.75H3.7021Z" fill="#F1F9FF"/>
<path d="M10.1966 7.75L9.99003 7.79274V8.1007C10.2101 8.27629 10.7687 8.57223 10.7687 8.57223V7.75H10.1966Z" fill="#F1F9FF"/>
<path fill-rule="evenodd" clip-rule="evenodd" d="M9.23497 4.50361V4.40112C8.87492 4.14272 8.49787 4.01352 8.10382 4.01352C7.72606 3.84635 7.34369 3.78145 6.95671 3.81885C6.95681 3.81765 6.95687 3.81704 6.95687 3.81704C6.37501 3.76011 5.78861 4.01352 5.78861 4.01352C5.19755 4.01352 4.65747 4.40112 4.65747 4.40112V4.50361L5.36349 5.21269C5.36349 5.21269 5.56222 5.89519 6.95399 5.73479V5.73652C6.95399 5.73652 7.87546 5.71137 7.94021 5.68983C7.9659 5.68129 7.99254 5.67351 8.01977 5.66556C8.20026 5.61287 8.4063 5.55271 8.52895 5.21269L9.23497 4.50361ZM6.95399 3.8502C6.9339 4.08628 6.81917 5.50936 6.95399 5.72999V3.8502Z" fill="#AD1619"/>
<path fill-rule="evenodd" clip-rule="evenodd" d="M5.19606 5.09358L5.19652 5.09142L4.69983 4.62412L4.7478 4.57313L5.21387 5.01163L5.2258 4.95678C5.30205 4.97336 5.35778 4.97945 5.39027 4.976V4.88088L5.49358 4.93679C5.5444 4.96429 5.61718 4.97168 5.71303 4.95609C5.78343 4.94463 5.83094 4.86287 5.84647 4.68864L5.87783 4.33691L5.98302 4.67401C6.03061 4.82654 6.10323 4.89378 6.2066 4.89378C6.30757 4.89378 6.34815 4.85677 6.35263 4.76347L6.36534 4.49886L6.485 4.73521C6.52811 4.82035 6.58757 4.85899 6.6721 4.85899C6.79301 4.85899 6.87377 4.75819 6.87377 4.60004H6.87606H7.01377H7.01606C7.01606 4.75819 7.09682 4.85899 7.21772 4.85899C7.30226 4.85899 7.36171 4.82035 7.40482 4.73521L7.52449 4.49886L7.53719 4.76347C7.54167 4.85677 7.58226 4.89378 7.68322 4.89378C7.7866 4.89378 7.85921 4.82654 7.90681 4.67401L8.012 4.33691L8.04336 4.68864C8.05889 4.86287 8.10639 4.94463 8.1768 4.95609C8.27265 4.97168 8.34543 4.96429 8.39624 4.93679L8.49956 4.88088V4.976C8.53204 4.97945 8.58778 4.97336 8.66403 4.95678L8.68616 5.05857L9.20212 4.57313L9.25009 4.62412L8.60802 5.22819C8.51435 5.40071 8.46717 5.51458 8.46717 5.56188C8.46717 5.63404 8.27943 5.67687 7.91302 5.72086C7.62596 5.75533 7.28719 5.77846 7.01009 5.78192V5.78237L6.97496 5.78225L6.93983 5.78237V5.78192C6.66272 5.77846 6.32395 5.75533 6.0369 5.72086C5.67048 5.67687 5.48274 5.63404 5.48274 5.56188C5.48274 5.55293 5.48105 5.5416 5.47768 5.52794C5.44073 5.48089 5.41476 5.40391 5.39747 5.33447C5.38125 5.302 5.36272 5.26655 5.34189 5.22819L5.19964 5.09436L5.19606 5.09358ZM8.63696 5.10485C8.52232 5.12514 8.43954 5.12309 8.39561 5.08733C8.32691 5.10732 8.24632 5.10924 8.15431 5.09427C8.05604 5.07828 7.9876 5.01291 7.94642 4.90447C7.89266 4.97296 7.82469 5.01525 7.74326 5.02892C8.19121 5.09245 8.505 5.18174 8.505 5.18174C8.505 5.18174 8.49726 5.24808 8.47845 5.32608C8.49836 5.28525 8.52195 5.23988 8.54922 5.1898L8.55597 5.18105L8.63696 5.10485ZM7.53188 5.00231C7.49292 4.98295 7.46181 4.95488 7.43932 4.91871C7.40592 4.9482 7.36794 4.96977 7.32575 4.98308C7.39618 4.98847 7.46505 4.99498 7.53188 5.00231ZM7.07864 4.96946C7.02411 4.94426 6.97877 4.90391 6.94491 4.85221C6.91129 4.90355 6.86636 4.94369 6.81235 4.96893C6.84434 4.96797 6.87653 4.9673 6.90886 4.96694V4.96662L6.93693 4.9667L6.965 4.96662V4.96694C7.00311 4.96737 7.04101 4.96822 7.07864 4.96946ZM5.38885 5.17626L5.32359 5.11486C5.40193 5.12263 5.45992 5.11525 5.49421 5.08733C5.56292 5.10732 5.6435 5.10924 5.73552 5.09427C5.83379 5.07828 5.90222 5.01291 5.9434 4.90447C5.99561 4.97098 6.06121 5.01277 6.13952 5.02766C5.75331 5.08192 5.46515 5.15575 5.38885 5.17626ZM6.56104 4.98211C6.49322 4.98715 6.42682 4.99324 6.36225 5.00012C6.3992 4.98086 6.42885 4.95354 6.45051 4.91871C6.4831 4.94749 6.52006 4.96873 6.56104 4.98211ZM8.28313 5.56325C8.33218 5.5862 8.37149 5.5633 8.40257 5.51936C8.39988 5.53149 8.3982 5.54247 8.39752 5.5523C8.39341 5.55498 8.38712 5.55822 8.37886 5.56169C8.3558 5.57139 8.32059 5.58171 8.27478 5.59216C8.18473 5.6127 8.05657 5.63313 7.90467 5.65136C7.60806 5.68698 7.25535 5.71041 6.97496 5.71225C6.69456 5.71041 6.34186 5.68698 6.04524 5.65136C5.89335 5.63313 5.76518 5.6127 5.67514 5.59216C5.63674 5.5834 5.60579 5.57473 5.5832 5.56644C5.58568 5.5655 5.5882 5.56443 5.59074 5.56325C5.74365 5.49169 6.75483 5.42455 6.93693 5.41296C7.11903 5.42455 8.13021 5.49169 8.28313 5.56325ZM8.47597 5.55042L8.4749 5.55165L8.47554 5.55076L8.47597 5.55042Z" fill="#C88A02"/>
<path fill-rule="evenodd" clip-rule="evenodd" d="M6.94517 3.34187C7.06115 3.34187 7.15517 3.24785 7.15517 3.13187C7.15517 3.0159 7.06115 2.92188 6.94517 2.92188C6.82919 2.92188 6.73517 3.0159 6.73517 3.13187C6.73517 3.24785 6.82919 3.34187 6.94517 3.34187Z" fill="#005BBF"/>
<path fill-rule="evenodd" clip-rule="evenodd" d="M6.8085 4.37293C6.81298 4.39598 6.81998 4.41744 6.82883 4.43656C6.8017 4.4262 6.7695 4.4202 6.73497 4.4202C6.63832 4.4202 6.55997 4.46721 6.55997 4.5252C6.55997 4.58319 6.63832 4.6302 6.73497 4.6302C6.83162 4.6302 6.90997 4.58319 6.90997 4.5252C6.90997 4.58319 6.98832 4.6302 7.08497 4.6302C7.18162 4.6302 7.25997 4.58319 7.25997 4.5252C7.25997 4.46721 7.18162 4.4202 7.08497 4.4202C7.06064 4.4202 7.03747 4.42318 7.01642 4.42856C7.02149 4.39985 7.02127 4.36694 7.01465 4.33286C6.9962 4.23799 6.93511 4.17005 6.87818 4.18111C6.82126 4.19218 6.79006 4.27806 6.8085 4.37293ZM6.90997 4.5252L6.90989 4.52199L6.91004 4.52204L6.90997 4.5252ZM5.77883 4.50656C5.76998 4.48744 5.76298 4.46598 5.7585 4.44293C5.74006 4.34806 5.77126 4.26218 5.82818 4.25111C5.88511 4.24005 5.94621 4.30799 5.96465 4.40286C5.97127 4.43694 5.97149 4.46985 5.96642 4.49856C5.98747 4.49318 6.01064 4.4902 6.03497 4.4902C6.13162 4.4902 6.20997 4.53721 6.20997 4.5952C6.20997 4.65319 6.13162 4.7002 6.03497 4.7002C5.93832 4.7002 5.85997 4.65319 5.85997 4.5952L5.86004 4.59204L5.85989 4.59199L5.85997 4.5952C5.85997 4.65319 5.78162 4.7002 5.68497 4.7002C5.58832 4.7002 5.50997 4.65319 5.50997 4.5952C5.50997 4.53721 5.58832 4.4902 5.68497 4.4902C5.7195 4.4902 5.7517 4.4962 5.77883 4.50656ZM7.97117 4.57055C7.9631 4.62797 7.87897 4.66362 7.78326 4.65017C7.68756 4.63672 7.61651 4.57926 7.62458 4.52184C7.63265 4.46441 7.71678 4.42876 7.81249 4.44221C7.84669 4.44702 7.87774 4.45745 7.90316 4.47148C7.89706 4.45131 7.89312 4.42909 7.89189 4.40564C7.88683 4.30913 7.92968 4.22842 7.98759 4.22539C8.0455 4.22235 8.09654 4.29814 8.1016 4.39465C8.10342 4.42932 8.09906 4.46194 8.09004 4.48966C8.11163 4.48726 8.13499 4.48754 8.15908 4.49092C8.25479 4.50438 8.32584 4.56183 8.31777 4.61926C8.3097 4.67668 8.22557 4.71233 8.12986 4.69888C8.03415 4.68543 7.9631 4.62797 7.97117 4.57055ZM7.97117 4.57055L7.97154 4.56736L7.97169 4.56744L7.97117 4.57055ZM8.63768 4.84821C8.72302 4.89358 8.81427 4.88886 8.8415 4.83765L8.84293 4.83479C8.85134 4.84369 8.86129 4.85016 8.87264 4.85363C8.9281 4.87059 8.99596 4.8094 9.02422 4.71698C9.05247 4.62455 9.03043 4.53588 8.97497 4.51892C8.91951 4.50197 8.85165 4.56315 8.82339 4.65558C8.81653 4.67803 8.81263 4.70026 8.81146 4.7213C8.79238 4.69942 8.76677 4.679 8.73627 4.66279C8.65094 4.61741 8.55969 4.62214 8.53246 4.67334C8.50524 4.72454 8.55235 4.80283 8.63768 4.84821ZM5.20298 4.86965C5.11764 4.91502 5.02639 4.9103 4.99917 4.8591C4.99866 4.85815 4.99819 4.8572 4.99773 4.85623C4.98933 4.86513 4.97938 4.8716 4.96802 4.87507C4.91257 4.89203 4.8447 4.83085 4.81645 4.73842C4.78819 4.64599 4.81024 4.55732 4.86569 4.54037C4.92115 4.52341 4.98901 4.5846 5.01727 4.67702C5.02413 4.69948 5.02803 4.72171 5.0292 4.74274C5.04828 4.72086 5.0739 4.70044 5.10439 4.68423C5.18973 4.63886 5.28098 4.64358 5.3082 4.69478C5.33542 4.74598 5.28832 4.82428 5.20298 4.86965Z" fill="#C88A02"/>
<path fill-rule="evenodd" clip-rule="evenodd" d="M6.86679 2.54785H7.01262V2.63998H7.10791V2.78581H7.01262V3.07748H7.10791V3.22331H6.77002V3.07748H6.86679V2.78581H6.77002V2.63998H6.86679V2.54785Z" fill="#C88A02"/>
<rect x="6.83997" y="3.34009" width="0.28" height="0.91" fill="#C88A02"/>
<path d="M5.71286 3.49235L5.71164 3.56234C5.09095 3.5515 4.73492 3.64208 4.64454 3.82261C4.5511 4.00925 4.56848 4.23614 4.6994 4.50566L4.63644 4.53624C4.49675 4.24868 4.47767 3.99956 4.58194 3.79127C4.68928 3.57687 5.06591 3.48105 5.71286 3.49235Z" fill="white"/>
<path d="M5.83295 4.11297L5.79706 4.17307C5.66189 4.09236 5.59424 3.95463 5.59424 3.76482C5.59424 3.49202 5.73477 3.33204 6.04561 3.22257C6.244 3.1527 6.51501 3.18135 6.85939 3.30621L6.83553 3.37202C6.50493 3.25215 6.24912 3.22511 6.06886 3.2886C5.78375 3.38901 5.66424 3.52505 5.66424 3.76482C5.66424 3.93139 5.72043 4.04579 5.83295 4.11297Z" fill="white"/>
<path d="M4.78757 4.39833L4.65548 4.44472C4.51843 4.05451 4.55757 3.7895 4.79175 3.67518C4.9981 3.57445 5.29884 3.53346 5.69547 3.54953L5.6898 3.68942C5.31428 3.6742 5.0349 3.71228 4.85316 3.80099C4.69926 3.87612 4.67111 4.06674 4.78757 4.39833Z" fill="#C88A02"/>
<path d="M6.33082 3.39903C6.01074 3.39903 5.87929 3.47699 5.8042 3.70717C5.75634 3.85386 5.80275 3.97906 5.95325 4.09592L5.86738 4.2065C5.67254 4.0552 5.60385 3.86989 5.6711 3.66375C5.7668 3.37041 5.95459 3.25903 6.33082 3.25903C6.57742 3.25903 6.76952 3.32382 6.90327 3.45567L6.92413 3.47623V4.15121H6.78413V3.53607C6.67967 3.44533 6.52962 3.39903 6.33082 3.39903Z" fill="#C88A02"/>
<path d="M8.15561 3.56217L8.15683 3.63216C8.77752 3.62132 9.13355 3.7119 9.22393 3.89243C9.31737 4.07908 9.29999 4.30596 9.16907 4.57548L9.23203 4.60607C9.37172 4.31851 9.3908 4.06939 9.28653 3.8611C9.17919 3.6467 8.80255 3.55088 8.15561 3.56217Z" fill="white"/>
<path d="M7.93646 4.12762L7.97235 4.18772C8.10752 4.10701 8.17517 3.96928 8.17517 3.77946C8.17517 3.50666 8.03464 3.34669 7.7238 3.23722C7.52541 3.16735 7.2544 3.196 6.91002 3.32086L6.93388 3.38667C7.26448 3.2668 7.52029 3.23976 7.70054 3.30324C7.98566 3.40366 8.10517 3.5397 8.10517 3.77946C8.10517 3.94603 8.04898 4.06044 7.93646 4.12762Z" fill="white"/>
<path d="M9.12454 4.46815L9.25663 4.51455C9.39368 4.12433 9.35454 3.85932 9.12036 3.74501C8.91401 3.64428 8.61327 3.60328 8.21664 3.61935L8.22231 3.75924C8.59783 3.74402 8.87721 3.7821 9.05895 3.87082C9.21285 3.94594 9.241 4.13656 9.12454 4.46815Z" fill="#C88A02"/>
<path d="M7.57329 3.40978C7.89338 3.40978 8.02482 3.48773 8.09992 3.71791C8.14777 3.8646 8.10136 3.9898 7.95087 4.10666L8.03674 4.21724C8.23157 4.06594 8.30027 3.88064 8.23301 3.67449C8.13731 3.38115 7.94953 3.26978 7.57329 3.26978C7.32669 3.26978 7.1346 3.33456 7.00084 3.46641L6.97998 3.48697V4.16195H7.11998V3.54681C7.22445 3.45608 7.3745 3.40978 7.57329 3.40978Z" fill="#C88A02"/>
<path opacity="0.3" fill-rule="evenodd" clip-rule="evenodd" d="M4.66998 5.79004H9.21998V9.87806C9.21998 9.87806 8.882 11.25 6.94498 11.25C5.00797 11.25 4.66998 9.84188 4.66998 9.84188V5.79004Z" fill="#E1E5E8"/>
<mask id="mask4_1_479" style="mask-type:luminance" maskUnits="userSpaceOnUse" x="4" y="5" width="6" height="7">
<path fill-rule="evenodd" clip-rule="evenodd" d="M4.66998 5.79004H9.21998V9.87806C9.21998 9.87806 8.882 11.25 6.94498 11.25C5.00797 11.25 4.66998 9.84188 4.66998 9.84188V5.79004Z" fill="white"/>
</mask>
<g mask="url(#mask4_1_479)">
<rect x="4.66998" y="8.31006" width="2.31" height="2.73" fill="#FFC034"/>
<rect x="4.95001" y="8.44995" width="0.28" height="2.59" fill="#AD1619"/>
<rect x="5.92999" y="8.44995" width="0.28" height="2.59" fill="#AD1619"/>
<rect x="5.44" y="8.44995" width="0.28" height="2.59" fill="#AD1619"/>
<rect x="6.41998" y="8.44995" width="0.28" height="2.59" fill="#AD1619"/>
<rect x="4.66998" y="5.71997" width="2.31" height="2.66" fill="#AD1619"/>
<rect x="6.90997" y="8.23999" width="2.31" height="2.66" fill="#AD1619"/>
<rect x="6.90997" y="5.79004" width="2.45" height="2.59" fill="#F1F9FF"/>
<path fill-rule="evenodd" clip-rule="evenodd" d="M5.64997 6H5.85997V6.58074H5.99997V6.29037H6.20997V6.58074H6.41997V6.9437H6.20997V7.59704H6.41997V7.96H5.15997V7.59704H5.36997V6.9437H5.15997V6.58074H5.29997V6.29037H5.50997V6.58074H5.64997V6Z" fill="#C88A02"/>
<path d="M8.11176 6.12197L8.25511 5.96851L8.55607 6.24965L8.41272 6.40311L8.11176 6.12197Z" fill="#C88A02"/>
<path fill-rule="evenodd" clip-rule="evenodd" d="M8.97498 10.0875V8.55493H7.22498V10.0746L7.22775 10.0865C7.31634 10.464 7.61803 10.6549 8.09998 10.6549C8.58146 10.6549 8.88311 10.4689 8.97206 10.0996L8.97498 10.0875ZM8.09998 10.4449C7.71328 10.4449 7.50211 10.3147 7.43498 10.0499V8.76493H8.76498V10.0621C8.69801 10.3182 8.48682 10.4449 8.09998 10.4449Z" fill="#FFC034"/>
<path fill-rule="evenodd" clip-rule="evenodd" d="M8.17223 8.68311H8.0264V9.3779L7.45151 8.75264L7.34845 8.84739L7.86836 9.41285H7.39729V9.62285H7.75915H7.87981L7.34845 10.2008L7.45151 10.2955L8.0264 9.67027V10.4824H8.17223V9.74335L8.67992 10.2955L8.78298 10.2008L8.25162 9.62285H8.84472V9.41285H8.26308L8.78298 8.84739L8.67992 8.75264L8.17223 9.30481V8.68311Z" fill="#FFC034"/>
<path fill-rule="evenodd" clip-rule="evenodd" d="M8.42666 10.9017C8.42666 10.9017 6.94404 11.0182 6.94404 10.062C6.94404 10.062 6.9299 10.9017 5.38177 10.9017V11.6566H8.42666V10.9017Z" fill="#F1F9FF"/>
<path fill-rule="evenodd" clip-rule="evenodd" d="M6.94498 8.87C7.23493 8.87 7.46998 8.61928 7.46998 8.31C7.46998 8.00072 7.23493 7.75 6.94498 7.75C6.65503 7.75 6.41998 8.00072 6.41998 8.31C6.41998 8.61928 6.65503 8.87 6.94498 8.87Z" fill="#005BBF" stroke="#AD1619" stroke-width="0.729167"/>
</g>
</g>
</g>
</svg>
