<svg width="18" height="30" viewBox="0 0 18 30" fill="none" xmlns="http://www.w3.org/2000/svg">
<path d="M12.9371 0.770095C10.6627 0.770143 8.80358 1.49524 7.51313 2.81802C6.22306 4.14041 5.51667 6.04441 5.51667 8.37343V11.3448H1.9C1.68341 11.3448 1.47569 11.4308 1.32253 11.584C1.16938 11.7371 1.08334 11.9448 1.08334 12.1614V17.2948C1.08334 17.5114 1.16938 17.7191 1.32253 17.8722C1.47569 18.0254 1.68341 18.1114 1.9 18.1114H5.51667V28.2548C5.51667 28.4714 5.60271 28.6791 5.75587 28.8322C5.90902 28.9854 6.11674 29.0714 6.33334 29.0714H11.6373C11.8539 29.0714 12.0617 28.9854 12.2148 28.8322C12.368 28.6791 12.454 28.4714 12.454 28.2548V18.1114H16.0586C16.0586 18.1114 16.0586 18.1114 16.0587 18.1114C16.2569 18.1115 16.4484 18.0395 16.5975 17.9088C16.7465 17.778 16.843 17.5975 16.8687 17.4009L16.8688 17.4006L17.5314 12.2676C17.5465 12.1523 17.5368 12.0352 17.503 11.924C17.4692 11.8127 17.4121 11.71 17.3354 11.6226C17.2587 11.5353 17.1642 11.4653 17.0583 11.4174C16.9524 11.3695 16.8376 11.3447 16.7213 11.3448C16.7213 11.3448 16.7213 11.3448 16.7213 11.3448H12.454V8.88276C12.454 8.23305 12.523 7.83088 12.7476 7.58147C12.9687 7.33602 13.3785 7.19943 14.1813 7.19943H16.9C17.1166 7.19943 17.3243 7.11339 17.4775 6.96023C17.6306 6.80708 17.7167 6.59935 17.7167 6.38276V1.7895C17.7167 1.78948 17.7167 1.78945 17.7167 1.78943C17.7167 1.59118 17.6447 1.39967 17.514 1.25063C17.3833 1.10156 17.2028 1.00514 17.0062 0.979367L17.0062 0.979322L17.0025 0.978932C15.6522 0.835685 14.295 0.76597 12.9371 0.770095ZM12.9371 0.770095C12.9372 0.770095 12.9373 0.770095 12.9373 0.770095V0.920095L12.9369 0.770095C12.937 0.770095 12.937 0.770095 12.9371 0.770095ZM11.636 12.9794H11.6357C11.4194 12.979 11.2121 12.8928 11.0593 12.7397C10.9065 12.5865 10.8207 12.3791 10.8207 12.1628V8.88276C10.8207 8.1968 10.9034 7.36469 11.3747 6.70292C11.8534 6.03069 12.7086 5.56611 14.1799 5.56609L11.636 12.9794ZM11.636 12.9794H15.7933L15.3402 16.4794H11.6373C11.4207 16.4794 11.213 16.5655 11.0599 16.7186C10.9067 16.8718 10.8207 17.0795 10.8207 17.2961V27.4368H7.15V17.2961C7.15 17.0795 7.06396 16.8718 6.91081 16.7186C6.75765 16.5655 6.54993 16.4794 6.33334 16.4794H2.718V12.9794H6.33334C6.54993 12.9794 6.75765 12.8934 6.91081 12.7402C7.06396 12.5871 7.15 12.3794 7.15 12.1628V8.37343C7.15 6.48606 7.69626 4.99724 8.68233 3.98088C9.66783 2.96509 11.1099 2.40343 12.9373 2.40343C14.1972 2.40343 15.3422 2.468 16.0833 2.52864V5.56486L14.18 5.56609L11.636 12.9794Z" fill="white" stroke="white" stroke-width="0.3"/>
</svg>
