<svg width="30" height="24" viewBox="0 0 30 24" fill="none" xmlns="http://www.w3.org/2000/svg">
<path d="M28.3333 1.34668C27 2.00002 25.6933 2.26535 24.3333 2.66668C22.8387 0.980018 20.6227 0.886684 18.4933 1.68402C16.364 2.48135 14.9693 4.43068 15 6.66668V8.00002C10.6733 8.11068 6.81999 6.14002 4.33332 2.66668C4.33332 2.66668 -1.24268 12.5774 9.66666 17.3334C7.17066 18.996 4.68132 20.1174 1.66666 20C6.07732 22.404 10.884 23.2307 15.0453 22.0227C19.8187 20.636 23.7413 17.0587 25.2467 11.7C25.6957 10.0702 25.9187 8.3865 25.9093 6.69602C25.9067 6.36402 27.9227 3.00002 28.3333 1.34535V1.34668Z" stroke="white" stroke-width="2" stroke-linecap="round" stroke-linejoin="round"/>
</svg>
